<svg xmlns="http://www.w3.org/2000/svg" viewBox="0 0 600 400">
  <rect width="600" height="400" fill="#DE2910"/>
  <g fill="#fff" transform="translate(300,200)">
    <path d="M0,-90 C5,-70 25,-55 45,-50 C25,-45 10,-25 5,0 C0,-25 -15,-45 -35,-50 C-15,-55 5,-70 0,-90 Z"/>
    <path d="M67,-58 C60,-40 65,-15 80,0 C60,-5 40,5 30,25 C35,5 30,-20 15,-35 C30,-30 55,-40 67,-58 Z"/>
    <path d="M78,25 C58,25 40,40 30,58 C35,38 30,15 15,0 C30,10 55,10 75,-5 C60,8 60,20 78,25 Z"/>
    <path d="M30,78 C25,58 10,40 -10,30 C10,35 30,25 45,10 C35,30 40,55 55,70 C40,60 30,65 30,78 Z"/>
    <path d="M-30,78 C-20,60 -15,35 -25,15 C-10,30 10,40 30,35 C10,45 -5,65 -5,85 C-10,68 -20,65 -30,78 Z"/>
  </g>
</svg>