<svg xmlns="http://www.w3.org/2000/svg" viewBox="0 0 600 300">
  <rect width="600" height="300" fill="#012169"/>
  <g fill="#fff">
    <path d="M0,0 L300,0 L300,150 L0,150 Z"/>
    <path d="M0,0 L300,150 M300,0 L0,150" stroke="#C8102E" stroke-width="30"/>
    <path d="M150,0 L150,150 M0,75 L300,75" stroke="#C8102E" stroke-width="50"/>
    <path d="M150,0 L150,150 M0,75 L300,75" stroke="#fff" stroke-width="30"/>
    <path d="M0,0 L300,150 M300,0 L0,150" stroke="#fff" stroke-width="10"/>
  </g>
  <g fill="#fff">
    <polygon points="420,45 430,75 462,75 436,95 446,125 420,105 394,125 404,95 378,75 410,75"/>
    <polygon points="500,85 510,115 542,115 516,135 526,165 500,145 474,165 484,135 458,115 490,115"/>
    <polygon points="460,165 470,195 502,195 476,215 486,245 460,225 434,245 444,215 418,195 450,195"/>
    <polygon points="380,125 390,155 422,155 396,175 406,205 380,185 354,205 364,175 338,155 370,155"/>
  </g>
</svg>