<svg xmlns="http://www.w3.org/2000/svg" viewBox="0 0 600 400">
  <rect width="600" height="200" fill="#ED2939"/>
  <rect y="200" width="600" height="200" fill="#fff"/>
  <path d="M160,140 a55,55 0 1,0 0,-80 a45,45 0 1,1 0,80" fill="#fff" transform="translate(0,10)"/>
  <g fill="#fff">
    <polygon points="240,55 248,80 275,80 253,95 262,120 240,105 218,120 227,95 205,80 232,80"/>
    <polygon points="310,75 318,100 345,100 323,115 332,140 310,125 288,140 297,115 275,100 302,100"/>
    <polygon points="380,95 388,120 415,120 393,135 402,160 380,145 358,160 367,135 345,120 372,120"/>
    <polygon points="450,75 458,100 485,100 463,115 472,140 450,125 428,140 437,115 415,100 442,100"/>
    <polygon points="520,55 528,80 555,80 533,95 542,120 520,105 498,120 507,95 485,80 512,80"/>
  </g>
</svg>