<svg xmlns="http://www.w3.org/2000/svg" viewBox="0 0 600 314">
  <rect width="600" height="314" fill="#fff"/>
  <g fill="#B22234">
    <rect width="600" height="24.15"/>
    <rect y="48.3" width="600" height="24.15"/>
    <rect y="96.61" width="600" height="24.15"/>
    <rect y="144.91" width="600" height="24.15"/>
    <rect y="193.22" width="600" height="24.15"/>
    <rect y="241.52" width="600" height="24.15"/>
    <rect y="289.83" width="600" height="24.15"/>
  </g>
  <rect width="240" height="169.45" fill="#3C3B6E"/>
  <g fill="#fff">
    <circle cx="21.82" cy="16.95" r="5.5"/><circle cx="54.55" cy="16.95" r="5.5"/>
    <circle cx="87.27" cy="16.95" r="5.5"/><circle cx="120" cy="16.95" r="5.5"/>
    <circle cx="152.73" cy="16.95" r="5.5"/><circle cx="185.45" cy="16.95" r="5.5"/>
    <circle cx="218.18" cy="16.95" r="5.5"/>
    <circle cx="38.18" cy="39.31" r="5.5"/><circle cx="70.91" cy="39.31" r="5.5"/>
    <circle cx="103.64" cy="39.31" r="5.5"/><circle cx="136.36" cy="39.31" r="5.5"/>
    <circle cx="169.09" cy="39.31" r="5.5"/><circle cx="201.82" cy="39.31" r="5.5"/>
    <circle cx="21.82" cy="61.66" r="5.5"/><circle cx="54.55" cy="61.66" r="5.5"/>
    <circle cx="87.27" cy="61.66" r="5.5"/><circle cx="120" cy="61.66" r="5.5"/>
    <circle cx="152.73" cy="61.66" r="5.5"/><circle cx="185.45" cy="61.66" r="5.5"/>
    <circle cx="218.18" cy="61.66" r="5.5"/>
    <circle cx="38.18" cy="84.02" r="5.5"/><circle cx="70.91" cy="84.02" r="5.5"/>
    <circle cx="103.64" cy="84.02" r="5.5"/><circle cx="136.36" cy="84.02" r="5.5"/>
    <circle cx="169.09" cy="84.02" r="5.5"/><circle cx="201.82" cy="84.02" r="5.5"/>
    <circle cx="21.82" cy="106.37" r="5.5"/><circle cx="54.55" cy="106.37" r="5.5"/>
    <circle cx="87.27" cy="106.37" r="5.5"/><circle cx="120" cy="106.37" r="5.5"/>
    <circle cx="152.73" cy="106.37" r="5.5"/><circle cx="185.45" cy="106.37" r="5.5"/>
    <circle cx="218.18" cy="106.37" r="5.5"/>
    <circle cx="38.18" cy="128.73" r="5.5"/><circle cx="70.91" cy="128.73" r="5.5"/>
    <circle cx="103.64" cy="128.73" r="5.5"/><circle cx="136.36" cy="128.73" r="5.5"/>
    <circle cx="169.09" cy="128.73" r="5.5"/><circle cx="201.82" cy="128.73" r="5.5"/>
    <circle cx="21.82" cy="151.08" r="5.5"/><circle cx="54.55" cy="151.08" r="5.5"/>
    <circle cx="87.27" cy="151.08" r="5.5"/><circle cx="120" cy="151.08" r="5.5"/>
    <circle cx="152.73" cy="151.08" r="5.5"/><circle cx="185.45" cy="151.08" r="5.5"/>
    <circle cx="218.18" cy="151.08" r="5.5"/>
  </g>
</svg>